M48
;Layer_Color=9474304
;FILE_FORMAT=2:4
INCH,TZ
;TYPE=PLATED
T1F00S00C0.0118
T2F00S00C0.0276
T5F00S00C0.0433
T6F00S00C0.1378
;TYPE=NON_PLATED
T7F00S00C0.0420
T8F00S00C0.0965
%
T01
X7879Y3335
X6379Y5567
X10882Y3290
X13479Y3567
X13979Y2617
X13091Y1581
X14400Y5567
X19879Y7167
X23179Y9520
X24630Y10581
X23898Y12287
X23279Y12167
X23053Y12380
X21841Y12800
X21850Y13170
X22100Y13500
X22700Y13800
X23100Y14178
X22560Y15077
X21400Y14257
X21000Y14342
Y14000
X20561Y14100
X20100Y13800
X20000Y13000
X21050Y12490
X21110Y12070
X21410Y11750
X21400Y12760
X19890Y15150
X19840Y15530
X19500Y15000
X19240Y14810
X18940Y14770
X18128Y13460
X17430Y15926
X16890
X15500Y11854
X24529Y4867
X24879
Y4467
Y4067
Y3567
Y3067
X24467
X24379Y2187
Y1867
X24679
X24979
Y2167
X24679
X24047Y1867
X21615
X31279Y2067
Y2367
Y2667
Y2965
Y5467
X31579
X31879
X30879
X30579
X32729Y4179
X33429
X34129
X27084Y6867
X27079Y7767
X26779Y10167
X29179Y9161
X29479Y12067
X30979Y11667
X26550Y14440
X30150Y29203
X19880Y26870
X20290Y25660
X19500Y24640
X19510Y23860
X18500Y25240
X17303Y24220
X17520Y26650
X18530Y17860
X18220Y17350
X18320Y16960
X18600Y16617
X18800Y16230
X19967Y16040
X20110Y17250
X20330Y17520
X20610Y17450
X21830Y17250
X22031Y17567
X22179Y18267
X21464Y18631
X19390Y18540
X21460Y16440
X21520Y16160
X24239Y16937
X23805Y17373
X23730Y17920
X5929Y19810
T02
X12648Y2027
X14557Y2028
T05
X5379Y2267
X6379
X7379
X8379
X9379
X10379
X13400Y11450
Y12450
Y13450
X14400
Y12450
Y11450
X13909Y24057
Y25057
Y26057
X14909
Y25057
Y24057
X14590Y29020
Y30020
X15590
X16590
X17590
Y29020
X16590
X15590
X13590
Y30020
X12590
X11590
X10590
Y29020
X11590
X12590
X9590
Y30020
X8590
Y29020
X3120Y29080
Y28080
Y27080
Y26080
Y25080
Y24080
Y23080
Y22080
Y21080
X2120
Y22080
Y23080
Y24080
Y25080
Y26080
Y27080
Y28080
Y29080
Y30080
X3120
X3479Y18667
X4479
X5479
X6479
X7479
X8479
X9479
T06
X1879Y7967
X11079
Y18467
X1879
T07
X22548Y8990
X23680Y10687
X24245Y10122
T08
X21841Y9697
X22725Y10581
X24139Y9167
X23256Y8283
M30
