G04*
G04 #@! TF.GenerationSoftware,Altium Limited,Altium Designer,19.0.15 (446)*
G04*
G04 Layer_Color=8421504*
%FSLAX25Y25*%
%MOIN*%
G70*
G01*
G75*
%ADD18R,0.01575X0.06299*%
%ADD19R,0.03740X0.02756*%
%ADD20R,0.06299X0.13386*%
%ADD21R,0.06299X0.03347*%
%ADD22R,0.05512X0.02362*%
%ADD23R,0.01575X0.02362*%
G04:AMPARAMS|DCode=24|XSize=27.56mil|YSize=37.4mil|CornerRadius=0mil|HoleSize=0mil|Usage=FLASHONLY|Rotation=315.000|XOffset=0mil|YOffset=0mil|HoleType=Round|Shape=Rectangle|*
%AMROTATEDRECTD24*
4,1,4,-0.02297,-0.00348,0.00348,0.02297,0.02297,0.00348,-0.00348,-0.02297,-0.02297,-0.00348,0.0*
%
%ADD24ROTATEDRECTD24*%

G04:AMPARAMS|DCode=25|XSize=27.56mil|YSize=37.4mil|CornerRadius=0mil|HoleSize=0mil|Usage=FLASHONLY|Rotation=225.000|XOffset=0mil|YOffset=0mil|HoleType=Round|Shape=Rectangle|*
%AMROTATEDRECTD25*
4,1,4,-0.00348,0.02297,0.02297,-0.00348,0.00348,-0.02297,-0.02297,0.00348,-0.00348,0.02297,0.0*
%
%ADD25ROTATEDRECTD25*%

G04:AMPARAMS|DCode=26|XSize=27.56mil|YSize=55.12mil|CornerRadius=0mil|HoleSize=0mil|Usage=FLASHONLY|Rotation=315.000|XOffset=0mil|YOffset=0mil|HoleType=Round|Shape=Rectangle|*
%AMROTATEDRECTD26*
4,1,4,-0.02923,-0.00974,0.00974,0.02923,0.02923,0.00974,-0.00974,-0.02923,-0.02923,-0.00974,0.0*
%
%ADD26ROTATEDRECTD26*%

G04:AMPARAMS|DCode=27|XSize=55.12mil|YSize=47.24mil|CornerRadius=0mil|HoleSize=0mil|Usage=FLASHONLY|Rotation=315.000|XOffset=0mil|YOffset=0mil|HoleType=Round|Shape=Rectangle|*
%AMROTATEDRECTD27*
4,1,4,-0.03619,0.00278,-0.00278,0.03619,0.03619,-0.00278,0.00278,-0.03619,-0.03619,0.00278,0.0*
%
%ADD27ROTATEDRECTD27*%

%ADD28P,0.04454X4X90.0*%
G04:AMPARAMS|DCode=29|XSize=11.81mil|YSize=57.09mil|CornerRadius=0mil|HoleSize=0mil|Usage=FLASHONLY|Rotation=315.000|XOffset=0mil|YOffset=0mil|HoleType=Round|Shape=Round|*
%AMOVALD29*
21,1,0.04528,0.01181,0.00000,0.00000,45.0*
1,1,0.01181,-0.01601,-0.01601*
1,1,0.01181,0.01601,0.01601*
%
%ADD29OVALD29*%

G04:AMPARAMS|DCode=30|XSize=11.81mil|YSize=57.09mil|CornerRadius=0mil|HoleSize=0mil|Usage=FLASHONLY|Rotation=225.000|XOffset=0mil|YOffset=0mil|HoleType=Round|Shape=Round|*
%AMOVALD30*
21,1,0.04528,0.01181,0.00000,0.00000,315.0*
1,1,0.01181,-0.01601,0.01601*
1,1,0.01181,0.01601,-0.01601*
%
%ADD30OVALD30*%

%ADD31R,0.02756X0.03740*%
%ADD32R,0.03150X0.03150*%
%ADD33R,0.04331X0.02362*%
%ADD34R,0.03150X0.03150*%
%ADD35R,0.02362X0.04331*%
%ADD36R,0.19685X0.15748*%
%ADD37R,0.03937X0.02953*%
%ADD38R,0.13780X0.23622*%
D18*
X141142Y21874D02*
D03*
X130905D02*
D03*
X133465D02*
D03*
X136024D02*
D03*
X138583D02*
D03*
D19*
X198787Y61354D02*
D03*
Y66669D02*
D03*
X159300Y130688D02*
D03*
Y136003D02*
D03*
Y120485D02*
D03*
Y125800D02*
D03*
X203400Y268915D02*
D03*
Y263600D02*
D03*
X199665Y243684D02*
D03*
Y238369D02*
D03*
X206037D02*
D03*
Y243684D02*
D03*
X341287Y31791D02*
D03*
Y37106D02*
D03*
X327287Y31476D02*
D03*
Y36791D02*
D03*
X334287Y31791D02*
D03*
Y37106D02*
D03*
X308787Y49669D02*
D03*
Y44354D02*
D03*
X29000Y16000D02*
D03*
Y21315D02*
D03*
Y11000D02*
D03*
Y5685D02*
D03*
X314787Y49669D02*
D03*
Y44354D02*
D03*
D20*
X316000Y77669D02*
D03*
D21*
X291787Y86724D02*
D03*
Y77669D02*
D03*
Y68614D02*
D03*
D22*
X189332Y242200D02*
D03*
Y247200D02*
D03*
Y252200D02*
D03*
Y257200D02*
D03*
X168466Y242200D02*
D03*
Y247200D02*
D03*
Y252200D02*
D03*
Y257200D02*
D03*
D23*
X206637Y259442D02*
D03*
X202700D02*
D03*
X198763D02*
D03*
X206637Y249600D02*
D03*
X202700D02*
D03*
X198763D02*
D03*
D24*
X224787Y180669D02*
D03*
X228546Y176911D02*
D03*
X192787Y170669D02*
D03*
X189029Y174427D02*
D03*
X194029Y178831D02*
D03*
X197787Y175072D02*
D03*
X173258Y150462D02*
D03*
X169500Y154220D02*
D03*
X210958Y115142D02*
D03*
X207200Y118900D02*
D03*
D25*
X231287Y166969D02*
D03*
X235046Y170728D02*
D03*
X239021Y166552D02*
D03*
X235263Y162794D02*
D03*
X211751Y183428D02*
D03*
X207993Y179669D02*
D03*
X231087Y150369D02*
D03*
X234846Y154128D02*
D03*
X224029Y130475D02*
D03*
X227787Y134234D02*
D03*
X228029Y126300D02*
D03*
X231787Y130058D02*
D03*
D26*
X226787Y162669D02*
D03*
X230963Y158493D02*
D03*
D27*
X213172Y174061D02*
D03*
X219297Y167937D02*
D03*
X224029Y172669D02*
D03*
X217905Y178794D02*
D03*
D28*
X235433Y146315D02*
D03*
X239887Y150769D02*
D03*
D29*
X214637Y155343D02*
D03*
X216029Y153951D02*
D03*
X220205Y149776D02*
D03*
X217421Y152559D02*
D03*
X218813Y151168D02*
D03*
X207678Y162303D02*
D03*
X209069Y160911D02*
D03*
X204894Y165087D02*
D03*
X206286Y163695D02*
D03*
X211853Y158127D02*
D03*
X213245Y156735D02*
D03*
X210461Y159519D02*
D03*
X191113Y131819D02*
D03*
X195289Y127644D02*
D03*
X196681Y126252D02*
D03*
X192505Y130428D02*
D03*
X193897Y129036D02*
D03*
X184154Y138779D02*
D03*
X185546Y137387D02*
D03*
X181370Y141563D02*
D03*
X182762Y140171D02*
D03*
X188330Y134603D02*
D03*
X189722Y133211D02*
D03*
X186938Y135995D02*
D03*
D30*
X220205Y141563D02*
D03*
X218813Y140171D02*
D03*
X217421Y138779D02*
D03*
X216029Y137387D02*
D03*
X214637Y135995D02*
D03*
X213245Y134603D02*
D03*
X211853Y133211D02*
D03*
X210461Y131819D02*
D03*
X209069Y130428D02*
D03*
X207678Y129036D02*
D03*
X206286Y127644D02*
D03*
X204894Y126252D02*
D03*
X196681Y165087D02*
D03*
X195289Y163695D02*
D03*
X193897Y162303D02*
D03*
X192505Y160911D02*
D03*
X191113Y159519D02*
D03*
X189722Y158127D02*
D03*
X188330Y156735D02*
D03*
X186938Y155343D02*
D03*
X185546Y153951D02*
D03*
X184154Y152559D02*
D03*
X182762Y151168D02*
D03*
X181370Y149776D02*
D03*
D31*
X306300Y116500D02*
D03*
X300985D02*
D03*
X306402Y110408D02*
D03*
X301087D02*
D03*
X274787Y77724D02*
D03*
X280102D02*
D03*
X274787Y68614D02*
D03*
X280102D02*
D03*
X239213Y42669D02*
D03*
X244528D02*
D03*
Y36669D02*
D03*
X239213D02*
D03*
X228583Y15669D02*
D03*
X233898D02*
D03*
X216150Y30150D02*
D03*
X221465D02*
D03*
X144000Y52000D02*
D03*
X138685D02*
D03*
X184200Y264600D02*
D03*
X178885D02*
D03*
X216150Y24150D02*
D03*
X221465D02*
D03*
X98400Y32600D02*
D03*
X103715D02*
D03*
X50500Y198100D02*
D03*
X55815D02*
D03*
D32*
X334287Y25091D02*
D03*
Y18791D02*
D03*
X341287D02*
D03*
Y25091D02*
D03*
X327287Y18791D02*
D03*
Y25091D02*
D03*
D33*
X228583Y22669D02*
D03*
Y26409D02*
D03*
Y30150D02*
D03*
X239213D02*
D03*
Y26409D02*
D03*
Y22669D02*
D03*
D34*
X16150Y16000D02*
D03*
X22449D02*
D03*
Y11000D02*
D03*
X16150D02*
D03*
D35*
X131047Y41984D02*
D03*
X134787D02*
D03*
X138528D02*
D03*
Y31354D02*
D03*
X134787D02*
D03*
X131047D02*
D03*
D36*
X301500Y165027D02*
D03*
Y279200D02*
D03*
D37*
X294787Y116433D02*
D03*
X271165D02*
D03*
Y101669D02*
D03*
X294787D02*
D03*
D38*
X297008Y33669D02*
D03*
X260787D02*
D03*
M02*
