G04*
G04 #@! TF.GenerationSoftware,Altium Limited,Altium Designer,19.0.15 (446)*
G04*
G04 Layer_Color=8388736*
%FSLAX25Y25*%
%MOIN*%
G70*
G01*
G75*
%ADD39R,0.01874X0.06598*%
%ADD40R,0.04039X0.03055*%
%ADD41R,0.06598X0.13685*%
%ADD42R,0.06598X0.03646*%
%ADD43R,0.05811X0.02661*%
%ADD44R,0.01874X0.02661*%
G04:AMPARAMS|DCode=45|XSize=30.55mil|YSize=40.39mil|CornerRadius=0mil|HoleSize=0mil|Usage=FLASHONLY|Rotation=315.000|XOffset=0mil|YOffset=0mil|HoleType=Round|Shape=Rectangle|*
%AMROTATEDRECTD45*
4,1,4,-0.02508,-0.00348,0.00348,0.02508,0.02508,0.00348,-0.00348,-0.02508,-0.02508,-0.00348,0.0*
%
%ADD45ROTATEDRECTD45*%

G04:AMPARAMS|DCode=46|XSize=30.55mil|YSize=40.39mil|CornerRadius=0mil|HoleSize=0mil|Usage=FLASHONLY|Rotation=225.000|XOffset=0mil|YOffset=0mil|HoleType=Round|Shape=Rectangle|*
%AMROTATEDRECTD46*
4,1,4,-0.00348,0.02508,0.02508,-0.00348,0.00348,-0.02508,-0.02508,0.00348,-0.00348,0.02508,0.0*
%
%ADD46ROTATEDRECTD46*%

G04:AMPARAMS|DCode=47|XSize=30.55mil|YSize=58.11mil|CornerRadius=0mil|HoleSize=0mil|Usage=FLASHONLY|Rotation=315.000|XOffset=0mil|YOffset=0mil|HoleType=Round|Shape=Rectangle|*
%AMROTATEDRECTD47*
4,1,4,-0.03135,-0.00974,0.00974,0.03135,0.03135,0.00974,-0.00974,-0.03135,-0.03135,-0.00974,0.0*
%
%ADD47ROTATEDRECTD47*%

G04:AMPARAMS|DCode=48|XSize=58.11mil|YSize=50.24mil|CornerRadius=0mil|HoleSize=0mil|Usage=FLASHONLY|Rotation=315.000|XOffset=0mil|YOffset=0mil|HoleType=Round|Shape=Rectangle|*
%AMROTATEDRECTD48*
4,1,4,-0.03831,0.00278,-0.00278,0.03831,0.03831,-0.00278,0.00278,-0.03831,-0.03831,0.00278,0.0*
%
%ADD48ROTATEDRECTD48*%

%ADD49P,0.04877X4X90.0*%
%ADD50C,0.03398*%
G04:AMPARAMS|DCode=51|XSize=14.8mil|YSize=60.08mil|CornerRadius=0mil|HoleSize=0mil|Usage=FLASHONLY|Rotation=315.000|XOffset=0mil|YOffset=0mil|HoleType=Round|Shape=Round|*
%AMOVALD51*
21,1,0.04528,0.01480,0.00000,0.00000,45.0*
1,1,0.01480,-0.01601,-0.01601*
1,1,0.01480,0.01601,0.01601*
%
%ADD51OVALD51*%

G04:AMPARAMS|DCode=52|XSize=14.8mil|YSize=60.08mil|CornerRadius=0mil|HoleSize=0mil|Usage=FLASHONLY|Rotation=225.000|XOffset=0mil|YOffset=0mil|HoleType=Round|Shape=Round|*
%AMOVALD52*
21,1,0.04528,0.01480,0.00000,0.00000,315.0*
1,1,0.01480,-0.01601,0.01601*
1,1,0.01480,0.01601,-0.01601*
%
%ADD52OVALD52*%

%ADD53R,0.03055X0.04039*%
%ADD54R,0.03449X0.03449*%
%ADD55R,0.04630X0.02661*%
%ADD56R,0.03449X0.03449*%
%ADD57R,0.02661X0.04630*%
%ADD58R,0.19984X0.16047*%
%ADD59R,0.04236X0.03252*%
%ADD60R,0.14079X0.23921*%
%ADD61O,0.08173X0.16047*%
%ADD62O,0.17622X0.08961*%
%ADD63O,0.16047X0.08173*%
%ADD64O,0.06205X0.06992*%
%ADD65C,0.05024*%
%ADD66O,0.06598X0.10142*%
%ADD67R,0.06598X0.10142*%
%ADD68C,0.14079*%
%ADD69C,0.04500*%
%ADD70C,0.09949*%
%ADD71O,0.06205X0.08173*%
%ADD72R,0.06205X0.08173*%
%ADD73O,0.08173X0.06205*%
%ADD74R,0.08173X0.06205*%
D39*
X141142Y21874D02*
D03*
X130905D02*
D03*
X133465D02*
D03*
X136024D02*
D03*
X138583D02*
D03*
D40*
X198787Y61354D02*
D03*
Y66669D02*
D03*
X159300Y130688D02*
D03*
Y136003D02*
D03*
Y120485D02*
D03*
Y125800D02*
D03*
X203400Y268915D02*
D03*
Y263600D02*
D03*
X199665Y243684D02*
D03*
Y238369D02*
D03*
X206037D02*
D03*
Y243684D02*
D03*
X341287Y31791D02*
D03*
Y37106D02*
D03*
X327287Y31476D02*
D03*
Y36791D02*
D03*
X334287Y31791D02*
D03*
Y37106D02*
D03*
X308787Y49669D02*
D03*
Y44354D02*
D03*
X29000Y16000D02*
D03*
Y21315D02*
D03*
Y11000D02*
D03*
Y5685D02*
D03*
X314787Y49669D02*
D03*
Y44354D02*
D03*
D41*
X316000Y77669D02*
D03*
D42*
X291787Y86724D02*
D03*
Y77669D02*
D03*
Y68614D02*
D03*
D43*
X189332Y242200D02*
D03*
Y247200D02*
D03*
Y252200D02*
D03*
Y257200D02*
D03*
X168466Y242200D02*
D03*
Y247200D02*
D03*
Y252200D02*
D03*
Y257200D02*
D03*
D44*
X206637Y259442D02*
D03*
X202700D02*
D03*
X198763D02*
D03*
X206637Y249600D02*
D03*
X202700D02*
D03*
X198763D02*
D03*
D45*
X224787Y180669D02*
D03*
X228546Y176911D02*
D03*
X192787Y170669D02*
D03*
X189029Y174427D02*
D03*
X194029Y178831D02*
D03*
X197787Y175072D02*
D03*
X173258Y150462D02*
D03*
X169500Y154220D02*
D03*
X210958Y115142D02*
D03*
X207200Y118900D02*
D03*
D46*
X231287Y166969D02*
D03*
X235046Y170728D02*
D03*
X239021Y166552D02*
D03*
X235263Y162794D02*
D03*
X211751Y183428D02*
D03*
X207993Y179669D02*
D03*
X231087Y150369D02*
D03*
X234846Y154128D02*
D03*
X224029Y130475D02*
D03*
X227787Y134234D02*
D03*
X228029Y126300D02*
D03*
X231787Y130058D02*
D03*
D47*
X226787Y162669D02*
D03*
X230963Y158493D02*
D03*
D48*
X213172Y174061D02*
D03*
X219297Y167937D02*
D03*
X224029Y172669D02*
D03*
X217905Y178794D02*
D03*
D49*
X235433Y146315D02*
D03*
X239887Y150769D02*
D03*
D50*
X227252Y95205D02*
D03*
X230787Y91669D02*
D03*
Y98740D02*
D03*
X237859D02*
D03*
X234323Y102276D02*
D03*
Y95205D02*
D03*
D51*
X214637Y155343D02*
D03*
X216029Y153951D02*
D03*
X220205Y149776D02*
D03*
X217421Y152559D02*
D03*
X218813Y151168D02*
D03*
X207678Y162303D02*
D03*
X209069Y160911D02*
D03*
X204894Y165087D02*
D03*
X206286Y163695D02*
D03*
X211853Y158127D02*
D03*
X213245Y156735D02*
D03*
X210461Y159519D02*
D03*
X191113Y131819D02*
D03*
X195289Y127644D02*
D03*
X196681Y126252D02*
D03*
X192505Y130428D02*
D03*
X193897Y129036D02*
D03*
X184154Y138779D02*
D03*
X185546Y137387D02*
D03*
X181370Y141563D02*
D03*
X182762Y140171D02*
D03*
X188330Y134603D02*
D03*
X189722Y133211D02*
D03*
X186938Y135995D02*
D03*
D52*
X220205Y141563D02*
D03*
X218813Y140171D02*
D03*
X217421Y138779D02*
D03*
X216029Y137387D02*
D03*
X214637Y135995D02*
D03*
X213245Y134603D02*
D03*
X211853Y133211D02*
D03*
X210461Y131819D02*
D03*
X209069Y130428D02*
D03*
X207678Y129036D02*
D03*
X206286Y127644D02*
D03*
X204894Y126252D02*
D03*
X196681Y165087D02*
D03*
X195289Y163695D02*
D03*
X193897Y162303D02*
D03*
X192505Y160911D02*
D03*
X191113Y159519D02*
D03*
X189722Y158127D02*
D03*
X188330Y156735D02*
D03*
X186938Y155343D02*
D03*
X185546Y153951D02*
D03*
X184154Y152559D02*
D03*
X182762Y151168D02*
D03*
X181370Y149776D02*
D03*
D53*
X306300Y116500D02*
D03*
X300985D02*
D03*
X306402Y110408D02*
D03*
X301087D02*
D03*
X274787Y77724D02*
D03*
X280102D02*
D03*
X274787Y68614D02*
D03*
X280102D02*
D03*
X239213Y42669D02*
D03*
X244528D02*
D03*
Y36669D02*
D03*
X239213D02*
D03*
X228583Y15669D02*
D03*
X233898D02*
D03*
X216150Y30150D02*
D03*
X221465D02*
D03*
X146000Y51600D02*
D03*
X140685D02*
D03*
X184200Y264600D02*
D03*
X178885D02*
D03*
X216150Y24150D02*
D03*
X221465D02*
D03*
X98400Y32600D02*
D03*
X103715D02*
D03*
X50500Y198100D02*
D03*
X55815D02*
D03*
D54*
X334287Y25091D02*
D03*
Y18791D02*
D03*
X341287D02*
D03*
Y25091D02*
D03*
X327287Y18791D02*
D03*
Y25091D02*
D03*
D55*
X228583Y22669D02*
D03*
Y26409D02*
D03*
Y30150D02*
D03*
X239213D02*
D03*
Y26409D02*
D03*
Y22669D02*
D03*
D56*
X16150Y16000D02*
D03*
X22449D02*
D03*
Y11000D02*
D03*
X16150D02*
D03*
D57*
X131047Y41984D02*
D03*
X134787D02*
D03*
X138528D02*
D03*
Y31354D02*
D03*
X134787D02*
D03*
X131047D02*
D03*
D58*
X301500Y165027D02*
D03*
Y279200D02*
D03*
D59*
X294787Y116433D02*
D03*
X271165D02*
D03*
Y101669D02*
D03*
X294787D02*
D03*
D60*
X297008Y33669D02*
D03*
X260787D02*
D03*
D61*
X204291Y41961D02*
D03*
D62*
X185787Y53772D02*
D03*
D63*
Y30150D02*
D03*
D64*
X121752Y9669D02*
D03*
X150295D02*
D03*
D65*
X145571Y20276D02*
D03*
X126476Y20274D02*
D03*
D66*
X54787Y186669D02*
D03*
X44787D02*
D03*
X64787D02*
D03*
X84787D02*
D03*
X74787D02*
D03*
X94787D02*
D03*
X63787Y22669D02*
D03*
X73787D02*
D03*
X93787D02*
D03*
X83787D02*
D03*
X53787D02*
D03*
D67*
X34787Y186669D02*
D03*
X103787Y22669D02*
D03*
D68*
X18787Y184669D02*
D03*
X110787D02*
D03*
Y79669D02*
D03*
X18787D02*
D03*
D69*
X225484Y89902D02*
D03*
X236798Y106872D02*
D03*
X242455Y101215D02*
D03*
D70*
X218413Y96973D02*
D03*
X232555Y82830D02*
D03*
X227252Y105811D02*
D03*
X241394Y91669D02*
D03*
D71*
X175900Y300200D02*
D03*
X165900D02*
D03*
X155900D02*
D03*
X145900D02*
D03*
X135900D02*
D03*
X125900D02*
D03*
X115900D02*
D03*
X105900D02*
D03*
X95900D02*
D03*
X85900D02*
D03*
X95900Y290200D02*
D03*
X105900D02*
D03*
X115900D02*
D03*
X125900D02*
D03*
X135900D02*
D03*
X145900D02*
D03*
X155900D02*
D03*
X165900D02*
D03*
X175900D02*
D03*
D72*
X85900D02*
D03*
D73*
X31200Y210800D02*
D03*
Y220800D02*
D03*
Y230800D02*
D03*
Y240800D02*
D03*
Y250800D02*
D03*
Y260800D02*
D03*
Y270800D02*
D03*
Y280800D02*
D03*
Y290800D02*
D03*
Y300800D02*
D03*
X21200Y290800D02*
D03*
Y280800D02*
D03*
Y270800D02*
D03*
Y260800D02*
D03*
Y250800D02*
D03*
Y240800D02*
D03*
Y230800D02*
D03*
Y220800D02*
D03*
Y210800D02*
D03*
X139087Y240569D02*
D03*
Y250569D02*
D03*
X149087Y260569D02*
D03*
Y250569D02*
D03*
Y240569D02*
D03*
X134000Y134500D02*
D03*
Y124500D02*
D03*
Y114500D02*
D03*
X144000Y124500D02*
D03*
Y134500D02*
D03*
D74*
X21200Y300800D02*
D03*
X139087Y260569D02*
D03*
X144000Y114500D02*
D03*
M02*
