G04*
G04 #@! TF.GenerationSoftware,Altium Limited,Altium Designer,19.0.15 (446)*
G04*
G04 Layer_Color=16711935*
%FSLAX25Y25*%
%MOIN*%
G70*
G01*
G75*
%ADD61O,0.08173X0.16047*%
%ADD62O,0.17622X0.08961*%
%ADD63O,0.16047X0.08173*%
%ADD64O,0.06205X0.06992*%
%ADD65C,0.05024*%
%ADD66O,0.06598X0.10142*%
%ADD67R,0.06598X0.10142*%
%ADD68C,0.14079*%
%ADD69C,0.04500*%
%ADD70C,0.09949*%
%ADD71O,0.06205X0.08173*%
%ADD72R,0.06205X0.08173*%
%ADD73O,0.08173X0.06205*%
%ADD74R,0.08173X0.06205*%
D61*
X204291Y41961D02*
D03*
D62*
X185787Y53772D02*
D03*
D63*
Y30150D02*
D03*
D64*
X121752Y9669D02*
D03*
X150295D02*
D03*
D65*
X145571Y20276D02*
D03*
X126476Y20274D02*
D03*
D66*
X54787Y186669D02*
D03*
X44787D02*
D03*
X64787D02*
D03*
X84787D02*
D03*
X74787D02*
D03*
X94787D02*
D03*
X63787Y22669D02*
D03*
X73787D02*
D03*
X93787D02*
D03*
X83787D02*
D03*
X53787D02*
D03*
D67*
X34787Y186669D02*
D03*
X103787Y22669D02*
D03*
D68*
X18787Y184669D02*
D03*
X110787D02*
D03*
Y79669D02*
D03*
X18787D02*
D03*
D69*
X225484Y89902D02*
D03*
X236798Y106872D02*
D03*
X242455Y101215D02*
D03*
D70*
X218413Y96973D02*
D03*
X232555Y82830D02*
D03*
X227252Y105811D02*
D03*
X241394Y91669D02*
D03*
D71*
X175900Y300200D02*
D03*
X165900D02*
D03*
X155900D02*
D03*
X145900D02*
D03*
X135900D02*
D03*
X125900D02*
D03*
X115900D02*
D03*
X105900D02*
D03*
X95900D02*
D03*
X85900D02*
D03*
X95900Y290200D02*
D03*
X105900D02*
D03*
X115900D02*
D03*
X125900D02*
D03*
X135900D02*
D03*
X145900D02*
D03*
X155900D02*
D03*
X165900D02*
D03*
X175900D02*
D03*
D72*
X85900D02*
D03*
D73*
X31200Y210800D02*
D03*
Y220800D02*
D03*
Y230800D02*
D03*
Y240800D02*
D03*
Y250800D02*
D03*
Y260800D02*
D03*
Y270800D02*
D03*
Y280800D02*
D03*
Y290800D02*
D03*
Y300800D02*
D03*
X21200Y290800D02*
D03*
Y280800D02*
D03*
Y270800D02*
D03*
Y260800D02*
D03*
Y250800D02*
D03*
Y240800D02*
D03*
Y230800D02*
D03*
Y220800D02*
D03*
Y210800D02*
D03*
X139087Y240569D02*
D03*
Y250569D02*
D03*
X149087Y260569D02*
D03*
Y250569D02*
D03*
Y240569D02*
D03*
X134000Y134500D02*
D03*
Y124500D02*
D03*
Y114500D02*
D03*
X144000Y124500D02*
D03*
Y134500D02*
D03*
D74*
X21200Y300800D02*
D03*
X139087Y260569D02*
D03*
X144000Y114500D02*
D03*
M02*
