G04*
G04 #@! TF.GenerationSoftware,Altium Limited,Altium Designer,19.0.15 (446)*
G04*
G04 Layer_Physical_Order=1*
G04 Layer_Color=255*
%FSLAX25Y25*%
%MOIN*%
G70*
G01*
G75*
%ADD10C,0.00787*%
%ADD13C,0.02362*%
%ADD17C,0.01000*%
%ADD18R,0.01575X0.06299*%
%ADD19R,0.03740X0.02756*%
%ADD20R,0.06299X0.13386*%
%ADD21R,0.06299X0.03347*%
%ADD22R,0.05512X0.02362*%
%ADD23R,0.01575X0.02362*%
G04:AMPARAMS|DCode=24|XSize=27.56mil|YSize=37.4mil|CornerRadius=0mil|HoleSize=0mil|Usage=FLASHONLY|Rotation=315.000|XOffset=0mil|YOffset=0mil|HoleType=Round|Shape=Rectangle|*
%AMROTATEDRECTD24*
4,1,4,-0.02297,-0.00348,0.00348,0.02297,0.02297,0.00348,-0.00348,-0.02297,-0.02297,-0.00348,0.0*
%
%ADD24ROTATEDRECTD24*%

G04:AMPARAMS|DCode=25|XSize=27.56mil|YSize=37.4mil|CornerRadius=0mil|HoleSize=0mil|Usage=FLASHONLY|Rotation=225.000|XOffset=0mil|YOffset=0mil|HoleType=Round|Shape=Rectangle|*
%AMROTATEDRECTD25*
4,1,4,-0.00348,0.02297,0.02297,-0.00348,0.00348,-0.02297,-0.02297,0.00348,-0.00348,0.02297,0.0*
%
%ADD25ROTATEDRECTD25*%

G04:AMPARAMS|DCode=26|XSize=27.56mil|YSize=55.12mil|CornerRadius=0mil|HoleSize=0mil|Usage=FLASHONLY|Rotation=315.000|XOffset=0mil|YOffset=0mil|HoleType=Round|Shape=Rectangle|*
%AMROTATEDRECTD26*
4,1,4,-0.02923,-0.00974,0.00974,0.02923,0.02923,0.00974,-0.00974,-0.02923,-0.02923,-0.00974,0.0*
%
%ADD26ROTATEDRECTD26*%

G04:AMPARAMS|DCode=27|XSize=55.12mil|YSize=47.24mil|CornerRadius=0mil|HoleSize=0mil|Usage=FLASHONLY|Rotation=315.000|XOffset=0mil|YOffset=0mil|HoleType=Round|Shape=Rectangle|*
%AMROTATEDRECTD27*
4,1,4,-0.03619,0.00278,-0.00278,0.03619,0.03619,-0.00278,0.00278,-0.03619,-0.03619,0.00278,0.0*
%
%ADD27ROTATEDRECTD27*%

%ADD28P,0.04454X4X90.0*%
G04:AMPARAMS|DCode=29|XSize=11.81mil|YSize=57.09mil|CornerRadius=0mil|HoleSize=0mil|Usage=FLASHONLY|Rotation=315.000|XOffset=0mil|YOffset=0mil|HoleType=Round|Shape=Round|*
%AMOVALD29*
21,1,0.04528,0.01181,0.00000,0.00000,45.0*
1,1,0.01181,-0.01601,-0.01601*
1,1,0.01181,0.01601,0.01601*
%
%ADD29OVALD29*%

G04:AMPARAMS|DCode=30|XSize=11.81mil|YSize=57.09mil|CornerRadius=0mil|HoleSize=0mil|Usage=FLASHONLY|Rotation=225.000|XOffset=0mil|YOffset=0mil|HoleType=Round|Shape=Round|*
%AMOVALD30*
21,1,0.04528,0.01181,0.00000,0.00000,315.0*
1,1,0.01181,-0.01601,0.01601*
1,1,0.01181,0.01601,-0.01601*
%
%ADD30OVALD30*%

%ADD31R,0.02756X0.03740*%
%ADD32R,0.03150X0.03150*%
%ADD33R,0.04331X0.02362*%
%ADD34R,0.03150X0.03150*%
%ADD35R,0.02362X0.04331*%
%ADD36R,0.19685X0.15748*%
%ADD37R,0.03937X0.02953*%
%ADD38R,0.13780X0.23622*%
%ADD75C,0.03098*%
%ADD76C,0.01575*%
%ADD77C,0.00914*%
%ADD78C,0.00630*%
%ADD79C,0.00394*%
%ADD80O,0.07874X0.15748*%
%ADD81O,0.17323X0.08661*%
%ADD82O,0.15748X0.07874*%
%ADD83O,0.05906X0.06693*%
%ADD84C,0.04724*%
%ADD85O,0.06299X0.09843*%
%ADD86R,0.06299X0.09843*%
%ADD87C,0.13780*%
%ADD88C,0.04201*%
%ADD89C,0.09650*%
%ADD90O,0.05906X0.07874*%
%ADD91R,0.05906X0.07874*%
%ADD92O,0.07874X0.05906*%
%ADD93R,0.07874X0.05906*%
%ADD94C,0.01968*%
G36*
X319787Y47669D02*
X303909Y47669D01*
Y56669D01*
X319787Y56669D01*
Y47669D01*
D02*
G37*
G36*
X250787Y29169D02*
X242787Y29169D01*
X242787Y50669D01*
X250787Y50669D01*
X250787Y29169D01*
D02*
G37*
G36*
X241787Y28569D02*
X235787D01*
Y49269D01*
X207658D01*
X206674Y50024D01*
X205525Y50500D01*
X204291Y50663D01*
X203058Y50500D01*
X201909Y50024D01*
X200925Y49269D01*
X175800D01*
Y63669D01*
X241787D01*
Y28569D01*
D02*
G37*
G36*
X268787Y46216D02*
X268787Y19669D01*
X252787D01*
Y24969D01*
X236546D01*
Y27669D01*
X252787Y27669D01*
X252787Y46569D01*
X268434Y46569D01*
X268787Y46216D01*
D02*
G37*
G36*
X318787Y17669D02*
X287787D01*
Y46669D01*
X318787D01*
Y17669D01*
D02*
G37*
G36*
X251787Y16669D02*
X238787D01*
Y24150D01*
X251787D01*
Y16669D01*
D02*
G37*
D10*
X55800Y199915D02*
Y202400D01*
Y199915D02*
X56715Y199000D01*
X55815Y198100D02*
X56715Y199000D01*
X130649Y26736D02*
X130905Y26479D01*
X185300Y178308D02*
X189105Y174503D01*
X175200Y266500D02*
X179885D01*
X198800Y268700D02*
X205000D01*
X270843Y68669D02*
X274787D01*
X291394Y86897D02*
X291787Y87291D01*
X291394Y86897D02*
X291677Y86614D01*
X306102Y116433D02*
X306339Y116669D01*
X55602Y198100D02*
X55815D01*
X194029Y54669D02*
X199173Y49525D01*
Y9284D02*
X204520Y3937D01*
X199173Y9284D02*
Y49525D01*
X169600Y80769D02*
X205926D01*
X144600Y55769D02*
X169600Y80769D01*
X225932Y136614D02*
X228387Y134158D01*
X128685Y34009D02*
X134787Y40111D01*
X128685Y28700D02*
Y34009D01*
Y28700D02*
X130649Y26736D01*
X134787Y31354D02*
Y35669D01*
Y40111D02*
Y41984D01*
X130905Y21874D02*
Y26479D01*
Y15811D02*
Y21874D01*
X208266Y165782D02*
Y168434D01*
X203300Y173400D02*
X208266Y168434D01*
X203300Y173400D02*
Y175200D01*
X208900Y124500D02*
Y125136D01*
X206392Y127644D02*
X208900Y125136D01*
X213550Y128050D02*
X214000Y127600D01*
X211554Y128050D02*
X213550D01*
X209176Y130428D02*
X211554Y128050D01*
X175485Y129185D02*
X182911D01*
X79654Y33354D02*
X175485Y129185D01*
X78787Y33354D02*
X79654D01*
X139561Y25943D02*
X139787Y26169D01*
X140013Y25943D01*
X138583D02*
X139561D01*
X140013D02*
X141142D01*
X138583Y21874D02*
Y25943D01*
X141142Y21874D02*
Y25943D01*
X192400Y147026D02*
Y148100D01*
X184154Y138779D02*
X192400Y147026D01*
X181370Y141563D02*
X187507Y147700D01*
X189400D01*
X186938Y135995D02*
X195000Y144058D01*
Y150000D01*
X181283Y134603D02*
X181603D01*
X182406Y135407D01*
X183459D01*
X185439Y137387D01*
X185546D01*
X168900Y158943D02*
Y159262D01*
Y158943D02*
X169848Y157995D01*
Y154568D02*
Y157995D01*
X169500Y154220D02*
X169848Y154568D01*
X216097Y159435D02*
X217365Y160703D01*
X216051Y159435D02*
X216097D01*
X213352Y156735D02*
X216051Y159435D01*
X213245Y156735D02*
X213352D01*
X217365Y160703D02*
Y164857D01*
X214496Y167726D02*
X217365Y164857D01*
X215200Y161398D02*
Y161600D01*
X211930Y158127D02*
X215200Y161398D01*
X300657Y116433D02*
X301087Y116002D01*
X225932Y136614D02*
X227159Y137841D01*
X227610Y134158D02*
X227863D01*
X301087Y110408D02*
Y116002D01*
X294787Y116433D02*
X300657D01*
X241965Y105811D02*
X246300D01*
X237859Y101705D02*
X241965Y105811D01*
X237859Y98740D02*
Y101705D01*
X231787Y95205D02*
X234323D01*
X204520Y3937D02*
X312433D01*
X327287Y18791D01*
X297139Y33800D02*
X310600D01*
X297008Y33669D02*
X297139Y33800D01*
X310600D02*
X322092Y22308D01*
X330771D01*
X344591Y18791D02*
X348387Y22587D01*
X341287Y18791D02*
X344591D01*
X348387Y22587D02*
Y61084D01*
X306339Y116669D02*
X309787D01*
X306702Y102769D02*
Y110108D01*
X306402Y110408D02*
X306702Y110108D01*
Y102769D02*
X348387Y61084D01*
X306702Y83084D02*
Y102769D01*
X158781Y130366D02*
X159100Y130685D01*
X140850Y130366D02*
X158781D01*
X145300Y125800D02*
X159300D01*
X144000Y124500D02*
X145300Y125800D01*
X220205Y141563D02*
X227610Y134158D01*
X158882Y120067D02*
X159300Y120485D01*
X156531Y120067D02*
X158882D01*
X155000Y118536D02*
X156531Y120067D01*
X165377Y121387D02*
Y122882D01*
X149990Y106000D02*
X165377Y121387D01*
X122500Y106000D02*
X149990D01*
X165377Y122882D02*
X182666Y140171D01*
X291677Y86614D02*
X291787Y86724D01*
X93787Y24936D02*
X98400Y29549D01*
X93787Y22669D02*
Y24936D01*
X98400Y29549D02*
Y32600D01*
X103809Y32900D02*
X108815D01*
X223787Y180669D02*
X224787D01*
X221787Y182669D02*
X223787Y180669D01*
X239570Y166552D02*
X242387Y169369D01*
X239021Y166552D02*
X239570D01*
X218300Y171300D02*
Y172500D01*
X217905Y178076D02*
X220311Y175669D01*
X217905Y178076D02*
Y178794D01*
X219297Y167937D02*
Y170303D01*
X218300Y171300D02*
X219297Y170303D01*
X235433Y146215D02*
Y146315D01*
X231000Y141782D02*
X235433Y146215D01*
X222805Y131700D02*
X224029Y130475D01*
X218500Y131700D02*
X222805D01*
X227787Y134234D02*
X227863Y134158D01*
X228387D01*
X228029Y126300D02*
X230529Y123800D01*
X231787Y130058D02*
Y130234D01*
X210958Y115142D02*
X211742D01*
X214100Y117500D01*
X192787Y170669D02*
X193385D01*
X185300Y178308D02*
Y178600D01*
X189029Y174427D02*
X189105Y174503D01*
X216150Y18669D02*
Y24150D01*
X230963Y158493D02*
X235263Y162794D01*
X211747Y133211D02*
Y133318D01*
X209973Y143416D02*
X209986Y143403D01*
X54787Y173713D02*
X122500Y106000D01*
X54787Y173713D02*
Y186669D01*
X183303Y126900D02*
X189615Y133211D01*
X175500Y126900D02*
X183303D01*
X76333Y27733D02*
X175500Y126900D01*
X76333Y25496D02*
Y27733D01*
X216652Y129765D02*
X218413Y128004D01*
X212622Y129765D02*
X216652D01*
X210568Y131819D02*
X212622Y129765D01*
X210461Y131819D02*
X210568D01*
X209069Y130428D02*
X209176D01*
X206286Y127644D02*
X206392D01*
X225600Y153148D02*
X228009D01*
X220900D02*
X225600D01*
Y150769D02*
Y153148D01*
X228009D02*
X230787Y150369D01*
X218920Y151168D02*
X220900Y153148D01*
X218813Y151168D02*
X218920D01*
X193900Y181048D02*
Y185400D01*
Y181048D02*
X194377Y180570D01*
Y179179D02*
Y180570D01*
X194029Y178831D02*
X194377Y179179D01*
X237300Y179200D02*
X265500Y151000D01*
Y144400D02*
Y151000D01*
X236776Y67769D02*
X265676Y96669D01*
X185484Y173500D02*
X195289Y163695D01*
X182200Y173500D02*
X185484D01*
X186600Y169600D02*
X193897Y162303D01*
X183200Y169600D02*
X186600D01*
X174667Y159262D02*
X182762Y151168D01*
X174300Y159262D02*
X174667D01*
X172402Y164311D02*
X184154Y152559D01*
X172402Y164311D02*
Y172000D01*
X174400Y170762D02*
X195100Y191462D01*
Y238600D01*
X177224Y153922D02*
X181370Y149776D01*
X174400Y165097D02*
Y170762D01*
X195600Y154200D02*
X198300Y151500D01*
X190971Y154200D02*
X195600D01*
X188436Y156735D02*
X190971Y154200D01*
X197553Y156147D02*
X198400Y155300D01*
X191980Y156147D02*
X197553D01*
X198300Y151500D02*
X198900D01*
X188330Y156735D02*
X188436D01*
X190000Y158127D02*
X191980Y156147D01*
X189722Y158127D02*
X190000D01*
X168978Y154220D02*
X169500D01*
X176700Y153922D02*
X177224D01*
X182762Y151168D02*
Y151238D01*
X202700Y259442D02*
X202900Y259243D01*
X206637Y255937D02*
Y258885D01*
Y259442D01*
X202900Y256600D02*
Y259243D01*
X185000Y248475D02*
X186363Y249838D01*
X185000Y244957D02*
Y248475D01*
Y244957D02*
X187758Y242200D01*
X205135Y254435D02*
X206637Y255937D01*
X197435Y254435D02*
X205135D01*
X192838Y249838D02*
X197435Y254435D01*
X189332Y242200D02*
X198181D01*
X199665Y243684D01*
X186363Y249838D02*
X192838D01*
X192724Y247200D02*
X197486Y251962D01*
X190907Y247200D02*
X192724D01*
X197486Y251962D02*
X204668D01*
X191707Y246400D02*
X195000D01*
X190907Y247200D02*
X191707Y246400D01*
X187758Y242200D02*
X189332D01*
Y247200D02*
X190907D01*
X180235Y159203D02*
X185516Y153922D01*
X180235Y159203D02*
Y159262D01*
X174400Y165097D02*
X180235Y159262D01*
X206037Y243684D02*
X206637Y244285D01*
Y249600D01*
X204668Y251962D02*
X206637Y249994D01*
Y249600D02*
Y249994D01*
X202700Y245568D02*
Y249600D01*
Y245568D02*
X202717Y245551D01*
Y241817D02*
Y245551D01*
X202700Y241800D02*
X202717Y241817D01*
X202700Y238469D02*
Y241800D01*
X189332Y188930D02*
Y242200D01*
X168466D02*
X173029D01*
X168466D02*
X168766Y242500D01*
X139087Y250569D02*
X140072D01*
X145002Y255500D01*
X157893Y252200D02*
X168466D01*
X154593Y255500D02*
X157893Y252200D01*
X145002Y255500D02*
X154593D01*
X166891Y247200D02*
X168466D01*
X163522Y250569D02*
X166891Y247200D01*
X149087Y250569D02*
X163522D01*
X200054Y164103D02*
X206980Y157177D01*
Y158715D01*
Y157152D02*
Y157177D01*
Y158715D02*
X209069Y160804D01*
Y160911D01*
X217927Y143842D02*
X220205Y141563D01*
X193385Y170669D02*
X193604D01*
X193385D02*
X197787Y175072D01*
X217358Y143842D02*
X217927D01*
X193604Y170669D02*
X200054Y164220D01*
X196681Y165087D02*
X199673Y162095D01*
Y160400D02*
Y162095D01*
X200054Y164103D02*
Y164220D01*
X172402Y172000D02*
X189332Y188930D01*
X185000Y252400D02*
X185200Y252200D01*
X189332D01*
X206100Y174500D02*
X210403Y170197D01*
X201100Y172500D02*
X201600D01*
X214000Y142569D02*
X216308D01*
X218706Y140171D01*
X209973Y143416D02*
X210000D01*
X216029Y137387D01*
X202200Y171791D02*
Y171900D01*
X201600Y172500D02*
X202200Y171900D01*
Y171791D02*
X206441Y167551D01*
Y166634D02*
Y167551D01*
X210403Y165135D02*
Y170197D01*
X207678Y162409D02*
X210403Y165135D01*
X212835Y162635D02*
X214600Y164400D01*
X212835Y161999D02*
Y162635D01*
X210456Y159620D02*
X212835Y161999D01*
X214496Y167726D02*
Y167766D01*
X213450Y168812D02*
X214496Y167766D01*
X213450Y168812D02*
Y173783D01*
X206980Y154220D02*
X217358Y143842D01*
X206980Y154220D02*
Y157152D01*
X221000Y135000D02*
Y135200D01*
X211471Y138849D02*
X211784D01*
X210320Y140000D02*
X211471Y138849D01*
X210014Y137835D02*
X213245Y134603D01*
X202669Y136331D02*
X208734D01*
X201000Y138000D02*
X202669Y136331D01*
X197646Y130000D02*
X200000D01*
X218706Y140171D02*
X218813D01*
X205610Y141000D02*
X208775Y137835D01*
X210000Y140000D02*
X210320D01*
X206286Y163802D02*
X208266Y165782D01*
X187244Y166172D02*
X192505Y160911D01*
X206980Y157152D02*
X206980Y157152D01*
X207678Y162303D02*
Y162409D01*
X206286Y163695D02*
Y163802D01*
X188223Y162303D02*
X191007Y159519D01*
X191113D01*
X204894Y165087D02*
X206441Y166634D01*
X181283Y134603D02*
X181509Y134829D01*
X208734Y136331D02*
X211747Y133318D01*
X208775Y137835D02*
X210014D01*
X217421Y138779D02*
X221000Y135200D01*
X195289Y127644D02*
X197646Y130000D01*
X211784Y138849D02*
X214637Y135995D01*
X186000Y166172D02*
X187244D01*
X188000Y162303D02*
X188223D01*
X182911Y129185D02*
X188330Y134603D01*
X182666Y140171D02*
X182762D01*
X214637Y155343D02*
X224307Y165014D01*
Y172391D01*
X134984Y124500D02*
X140850Y130366D01*
X134000Y124500D02*
X134984D01*
X22449Y11000D02*
X29000D01*
X21449D02*
X22449D01*
Y16000D02*
X29000D01*
Y22315D02*
X29059Y22374D01*
Y33941D01*
X34787Y39669D01*
X282299Y11811D02*
X290905Y20417D01*
X216155Y11811D02*
X282299D01*
X213197Y14769D02*
X216155Y11811D01*
X213197Y14769D02*
Y26705D01*
X216150Y29658D01*
X236255Y152718D02*
X237939D01*
X234846Y154128D02*
X236255Y152718D01*
X237939D02*
X239887Y150769D01*
X227010Y154540D02*
X230963Y158493D01*
X219508Y154540D02*
X227010D01*
X217528Y152559D02*
X219508Y154540D01*
X217421Y152559D02*
X217528D01*
X235046Y170728D02*
X238046Y173728D01*
X226987Y162669D02*
X231287Y166969D01*
X226787Y162669D02*
X226987D01*
X223787Y159669D02*
X226787Y162669D01*
X221747Y159669D02*
X223787D01*
X294787Y116433D02*
Y120669D01*
X292387Y77769D02*
X301387D01*
X306702Y83084D01*
X218926Y67769D02*
X236776D01*
X205926Y80769D02*
X218926Y67769D01*
X267787Y101669D02*
X271165D01*
X280157Y68614D02*
X291787D01*
X270843Y77724D02*
X274787D01*
X270787Y77669D02*
X270843Y77724D01*
X214637Y186314D02*
Y186332D01*
X211751Y183428D02*
X214637Y186314D01*
X207993Y179669D02*
X213172Y174490D01*
Y174061D02*
Y174490D01*
X224029Y172669D02*
X224304D01*
X228546Y176911D01*
X213172Y174061D02*
X213450Y173783D01*
X224029Y172669D02*
X224307Y172391D01*
X210993Y184769D02*
X211415D01*
X233898Y22371D02*
X237149Y25622D01*
X233898Y15669D02*
Y22371D01*
X34787Y39669D02*
X72102D01*
X73787Y37984D01*
Y22949D02*
Y37984D01*
X189615Y133211D02*
X189722D01*
X73787Y22949D02*
X76333Y25496D01*
X73787Y22669D02*
Y22949D01*
X341287Y37106D02*
Y41791D01*
Y36791D02*
Y37106D01*
X334287D02*
Y41791D01*
Y36791D02*
Y37106D01*
X301500Y279200D02*
Y292027D01*
X327287Y36791D02*
Y41791D01*
X330771Y22308D02*
X334287Y18791D01*
X29707Y15435D02*
X29787Y15354D01*
X221465Y24150D02*
Y30150D01*
X228583D01*
X198787Y66669D02*
Y71669D01*
X239213Y30150D02*
Y36669D01*
X228583Y15669D02*
Y22669D01*
X238425Y25622D02*
X239213Y26409D01*
X237149Y25622D02*
X238425D01*
X216029Y153951D02*
X221747Y159669D01*
D13*
X203451Y238469D02*
X207129D01*
X171978Y149200D02*
X176700Y153922D01*
X139687Y260669D02*
X159169D01*
X232246Y130099D02*
X265676Y96669D01*
X166100Y290000D02*
X176100D01*
X125600Y246582D02*
X139687Y260669D01*
X133616Y114600D02*
X144600D01*
X212233Y263582D02*
X212351Y263464D01*
Y243691D02*
Y263464D01*
X203597Y263582D02*
X212233D01*
X179917Y272200D02*
X184200Y267917D01*
Y264600D02*
Y267917D01*
X191857Y264257D02*
X194913D01*
X195785Y263385D01*
X203400D01*
X203597Y263582D01*
X184800Y264257D02*
X191857D01*
X176100Y272200D02*
X179917D01*
X175900D02*
X176100D01*
X291787Y87291D02*
Y91614D01*
X231787Y130058D02*
X236732Y125114D01*
X232246Y130099D02*
X236732Y125114D01*
X159169Y260669D02*
X170700Y272200D01*
X175900D01*
X176100D02*
Y290000D01*
X227863Y134158D02*
X231787Y130234D01*
X125600Y149200D02*
X171978D01*
X125600D02*
Y246582D01*
X207129Y238469D02*
X212351Y243691D01*
X199773Y238469D02*
X202700D01*
X202900Y233000D02*
Y238469D01*
X198735Y228835D02*
X202900Y233000D01*
X189932Y262332D02*
X191857Y264257D01*
X189932Y257300D02*
Y262332D01*
X198735Y175520D02*
Y228835D01*
X198387Y175172D02*
X198735Y175520D01*
X125600Y122616D02*
Y149200D01*
Y122616D02*
X133616Y114600D01*
X265676Y96669D02*
X280702Y81843D01*
D17*
X144000Y55669D02*
X144185Y55484D01*
Y53907D02*
Y55484D01*
Y53907D02*
X146000Y52092D01*
Y51600D02*
Y52092D01*
X16000Y16000D02*
Y48882D01*
X207200Y118900D02*
X208137D01*
X204033D02*
X207200D01*
X159100Y135984D02*
X173135D01*
X211029Y120700D02*
X211100D01*
X208137Y118900D02*
X210051Y120815D01*
X210915D01*
X211029Y120700D01*
X144287Y117035D02*
X144413Y117162D01*
X175400Y272700D02*
X175900Y272200D01*
X299483Y165027D02*
X301500D01*
X273967Y139510D02*
X299483Y165027D01*
X229290Y139510D02*
X273967D01*
X196681Y126252D02*
X204033Y118900D01*
X182493Y145042D02*
X189024Y151573D01*
X173135Y135984D02*
X182193Y145042D01*
X182493D01*
X189024Y151573D02*
Y153208D01*
X220291Y148509D02*
X229290Y139510D01*
X220291Y148509D02*
Y149689D01*
X186938Y155294D02*
X189024Y153208D01*
X186938Y155294D02*
Y155343D01*
X16150Y11000D02*
Y16000D01*
X16000Y48882D02*
X22787Y55669D01*
X46803Y5685D02*
X61002Y19884D01*
X29707Y5685D02*
X46803D01*
X22787Y55669D02*
X63787D01*
Y22332D02*
Y22669D01*
X61339Y19884D02*
X63787Y22332D01*
X61002Y19884D02*
X61339D01*
X260787Y32799D02*
Y33669D01*
X254398Y26409D02*
X260787Y32799D01*
X341287Y25091D02*
Y31791D01*
X334287Y25091D02*
Y31791D01*
X327287Y25091D02*
Y31476D01*
D18*
X141142Y21874D02*
D03*
X130905D02*
D03*
X133465D02*
D03*
X136024D02*
D03*
X138583D02*
D03*
D19*
X198787Y61354D02*
D03*
Y66669D02*
D03*
X159300Y130688D02*
D03*
Y136003D02*
D03*
Y120485D02*
D03*
Y125800D02*
D03*
X203400Y268915D02*
D03*
Y263600D02*
D03*
X199665Y243684D02*
D03*
Y238369D02*
D03*
X206037D02*
D03*
Y243684D02*
D03*
X341287Y31791D02*
D03*
Y37106D02*
D03*
X327287Y31476D02*
D03*
Y36791D02*
D03*
X334287Y31791D02*
D03*
Y37106D02*
D03*
X308787Y49669D02*
D03*
Y44354D02*
D03*
X29000Y16000D02*
D03*
Y21315D02*
D03*
Y11000D02*
D03*
Y5685D02*
D03*
X314787Y49669D02*
D03*
Y44354D02*
D03*
D20*
X316000Y77669D02*
D03*
D21*
X291787Y86724D02*
D03*
Y77669D02*
D03*
Y68614D02*
D03*
D22*
X189332Y242200D02*
D03*
Y247200D02*
D03*
Y252200D02*
D03*
Y257200D02*
D03*
X168466Y242200D02*
D03*
Y247200D02*
D03*
Y252200D02*
D03*
Y257200D02*
D03*
D23*
X206637Y259442D02*
D03*
X202700D02*
D03*
X198763D02*
D03*
X206637Y249600D02*
D03*
X202700D02*
D03*
X198763D02*
D03*
D24*
X224787Y180669D02*
D03*
X228546Y176911D02*
D03*
X192787Y170669D02*
D03*
X189029Y174427D02*
D03*
X194029Y178831D02*
D03*
X197787Y175072D02*
D03*
X173258Y150462D02*
D03*
X169500Y154220D02*
D03*
X210958Y115142D02*
D03*
X207200Y118900D02*
D03*
D25*
X231287Y166969D02*
D03*
X235046Y170728D02*
D03*
X239021Y166552D02*
D03*
X235263Y162794D02*
D03*
X211751Y183428D02*
D03*
X207993Y179669D02*
D03*
X231087Y150369D02*
D03*
X234846Y154128D02*
D03*
X224029Y130475D02*
D03*
X227787Y134234D02*
D03*
X228029Y126300D02*
D03*
X231787Y130058D02*
D03*
D26*
X226787Y162669D02*
D03*
X230963Y158493D02*
D03*
D27*
X213172Y174061D02*
D03*
X219297Y167937D02*
D03*
X224029Y172669D02*
D03*
X217905Y178794D02*
D03*
D28*
X235433Y146315D02*
D03*
X239887Y150769D02*
D03*
D29*
X214637Y155343D02*
D03*
X216029Y153951D02*
D03*
X220205Y149776D02*
D03*
X217421Y152559D02*
D03*
X218813Y151168D02*
D03*
X207678Y162303D02*
D03*
X209069Y160911D02*
D03*
X204894Y165087D02*
D03*
X206286Y163695D02*
D03*
X211853Y158127D02*
D03*
X213245Y156735D02*
D03*
X210461Y159519D02*
D03*
X191113Y131819D02*
D03*
X195289Y127644D02*
D03*
X196681Y126252D02*
D03*
X192505Y130428D02*
D03*
X193897Y129036D02*
D03*
X184154Y138779D02*
D03*
X185546Y137387D02*
D03*
X181370Y141563D02*
D03*
X182762Y140171D02*
D03*
X188330Y134603D02*
D03*
X189722Y133211D02*
D03*
X186938Y135995D02*
D03*
D30*
X220205Y141563D02*
D03*
X218813Y140171D02*
D03*
X217421Y138779D02*
D03*
X216029Y137387D02*
D03*
X214637Y135995D02*
D03*
X213245Y134603D02*
D03*
X211853Y133211D02*
D03*
X210461Y131819D02*
D03*
X209069Y130428D02*
D03*
X207678Y129036D02*
D03*
X206286Y127644D02*
D03*
X204894Y126252D02*
D03*
X196681Y165087D02*
D03*
X195289Y163695D02*
D03*
X193897Y162303D02*
D03*
X192505Y160911D02*
D03*
X191113Y159519D02*
D03*
X189722Y158127D02*
D03*
X188330Y156735D02*
D03*
X186938Y155343D02*
D03*
X185546Y153951D02*
D03*
X184154Y152559D02*
D03*
X182762Y151168D02*
D03*
X181370Y149776D02*
D03*
D31*
X306300Y116500D02*
D03*
X300985D02*
D03*
X306402Y110408D02*
D03*
X301087D02*
D03*
X274787Y77724D02*
D03*
X280102D02*
D03*
X274787Y68614D02*
D03*
X280102D02*
D03*
X239213Y42669D02*
D03*
X244528D02*
D03*
Y36669D02*
D03*
X239213D02*
D03*
X228583Y15669D02*
D03*
X233898D02*
D03*
X216150Y30150D02*
D03*
X221465D02*
D03*
X146000Y51600D02*
D03*
X140685D02*
D03*
X184200Y264600D02*
D03*
X178885D02*
D03*
X216150Y24150D02*
D03*
X221465D02*
D03*
X98400Y32600D02*
D03*
X103715D02*
D03*
X50500Y198100D02*
D03*
X55815D02*
D03*
D32*
X334287Y25091D02*
D03*
Y18791D02*
D03*
X341287D02*
D03*
Y25091D02*
D03*
X327287Y18791D02*
D03*
Y25091D02*
D03*
D33*
X228583Y22669D02*
D03*
Y26409D02*
D03*
Y30150D02*
D03*
X239213D02*
D03*
Y26409D02*
D03*
Y22669D02*
D03*
D34*
X16150Y16000D02*
D03*
X22449D02*
D03*
Y11000D02*
D03*
X16150D02*
D03*
D35*
X131047Y41984D02*
D03*
X134787D02*
D03*
X138528D02*
D03*
Y31354D02*
D03*
X134787D02*
D03*
X131047D02*
D03*
D36*
X301500Y165027D02*
D03*
Y279200D02*
D03*
D37*
X294787Y116433D02*
D03*
X271165D02*
D03*
Y101669D02*
D03*
X294787D02*
D03*
D38*
X297008Y33669D02*
D03*
X260787D02*
D03*
D75*
X227252Y95205D02*
D03*
X230787Y91669D02*
D03*
Y98740D02*
D03*
X237859D02*
D03*
X234323Y102276D02*
D03*
Y95205D02*
D03*
D76*
X54259Y204959D02*
X71959D01*
X50500Y201200D02*
X54259Y204959D01*
X71959D02*
X156100Y289100D01*
X50500Y198100D02*
Y201200D01*
X280102Y68669D02*
X280157Y68614D01*
X50500Y195049D02*
Y198100D01*
X44787Y189336D02*
X50500Y195049D01*
X44787Y186669D02*
Y189336D01*
X156100Y289100D02*
Y290000D01*
X280757Y77769D02*
X292387D01*
X233387Y121769D02*
X236732Y125114D01*
X290905Y20417D02*
Y22646D01*
X297008Y28748D01*
Y33669D01*
X216150Y29658D02*
Y30150D01*
X280702Y77824D02*
Y81843D01*
Y77824D02*
X280757Y77769D01*
X291787Y38890D02*
X297008Y33669D01*
X291787Y38890D02*
Y68614D01*
D77*
X135494Y52100D02*
Y73809D01*
Y45929D02*
Y52100D01*
X140185D02*
X140685Y51600D01*
X135494Y52100D02*
X140185D01*
X134081Y45929D02*
Y74394D01*
X188944Y129257D01*
Y129577D01*
X191113Y131747D01*
Y131819D01*
X135494Y73809D02*
X189943Y128258D01*
X190263D01*
X192433Y130428D01*
X192505D01*
X131047Y41984D02*
Y42968D01*
X132362Y44283D01*
Y44665D01*
X133091Y45394D01*
X133545D01*
X134081Y45929D01*
X138528Y41984D02*
Y42968D01*
X137213Y44283D02*
X138528Y42968D01*
X137213Y44283D02*
Y44665D01*
X136484Y45394D02*
X137213Y44665D01*
X136029Y45394D02*
X136484D01*
X135494Y45929D02*
X136029Y45394D01*
X133465Y24433D02*
Y25851D01*
Y21874D02*
Y24433D01*
X136024Y25851D02*
X136528Y26355D01*
Y27409D01*
X138528Y29409D01*
Y31354D01*
X136024Y21874D02*
Y25851D01*
X132787Y26528D02*
X133465Y25851D01*
X130724Y29732D02*
X132787Y27669D01*
Y26528D02*
Y27669D01*
X130724Y29732D02*
Y31032D01*
X131047Y31354D01*
D78*
X184787Y119926D02*
X193897Y129036D01*
X184787Y111669D02*
Y119926D01*
X207451Y122413D02*
X209764D01*
X204894Y124971D02*
X207451Y122413D01*
X204894Y124971D02*
Y126252D01*
X210138Y122787D02*
X211964D01*
X209764Y122413D02*
X210138Y122787D01*
X211964D02*
X216187Y118564D01*
Y108049D02*
X225495Y98740D01*
X216187Y108049D02*
Y118564D01*
X225466Y93419D02*
X227252Y95205D01*
X223687Y93419D02*
X225466D01*
X220999Y90731D02*
X223687Y93419D01*
X225495Y98740D02*
X230787D01*
X184787Y111669D02*
X205726Y90731D01*
X220999D01*
D79*
X207891Y129036D02*
X219110Y117816D01*
X223908D01*
X207678Y129036D02*
X207891D01*
X233376Y103223D02*
Y108348D01*
Y103223D02*
X234323Y102276D01*
X218797Y151168D02*
X218813D01*
X211853Y158127D02*
X211930D01*
X230787Y150369D02*
X231087D01*
X223908Y117816D02*
X233376Y108348D01*
D80*
X204291Y41961D02*
D03*
D81*
X185787Y53772D02*
D03*
D82*
Y30150D02*
D03*
D83*
X121752Y9669D02*
D03*
X150295D02*
D03*
D84*
X145571Y20276D02*
D03*
X126476Y20274D02*
D03*
D85*
X54787Y186669D02*
D03*
X44787D02*
D03*
X64787D02*
D03*
X84787D02*
D03*
X74787D02*
D03*
X94787D02*
D03*
X63787Y22669D02*
D03*
X73787D02*
D03*
X93787D02*
D03*
X83787D02*
D03*
X53787D02*
D03*
D86*
X34787Y186669D02*
D03*
X103787Y22669D02*
D03*
D87*
X18787Y184669D02*
D03*
X110787D02*
D03*
Y79669D02*
D03*
X18787D02*
D03*
D88*
X225484Y89902D02*
D03*
X236798Y106872D02*
D03*
X242455Y101215D02*
D03*
D89*
X218413Y96973D02*
D03*
X232555Y82830D02*
D03*
X227252Y105811D02*
D03*
X241394Y91669D02*
D03*
D90*
X175900Y300200D02*
D03*
X165900D02*
D03*
X155900D02*
D03*
X145900D02*
D03*
X135900D02*
D03*
X125900D02*
D03*
X115900D02*
D03*
X105900D02*
D03*
X95900D02*
D03*
X85900D02*
D03*
X95900Y290200D02*
D03*
X105900D02*
D03*
X115900D02*
D03*
X125900D02*
D03*
X135900D02*
D03*
X145900D02*
D03*
X155900D02*
D03*
X165900D02*
D03*
X175900D02*
D03*
D91*
X85900D02*
D03*
D92*
X31200Y210800D02*
D03*
Y220800D02*
D03*
Y230800D02*
D03*
Y240800D02*
D03*
Y250800D02*
D03*
Y260800D02*
D03*
Y270800D02*
D03*
Y280800D02*
D03*
Y290800D02*
D03*
Y300800D02*
D03*
X21200Y290800D02*
D03*
Y280800D02*
D03*
Y270800D02*
D03*
Y260800D02*
D03*
Y250800D02*
D03*
Y240800D02*
D03*
Y230800D02*
D03*
Y220800D02*
D03*
Y210800D02*
D03*
X139087Y240569D02*
D03*
Y250569D02*
D03*
X149087Y260569D02*
D03*
Y250569D02*
D03*
Y240569D02*
D03*
X134000Y134500D02*
D03*
Y124500D02*
D03*
Y114500D02*
D03*
X144000Y124500D02*
D03*
Y134500D02*
D03*
D93*
X21200Y300800D02*
D03*
X139087Y260569D02*
D03*
X144000Y114500D02*
D03*
D94*
X55800Y202400D02*
D03*
X144000Y55669D02*
D03*
X134787Y35669D02*
D03*
X208900Y124500D02*
D03*
X130905Y15811D02*
D03*
X139787Y26169D02*
D03*
X192400Y148100D02*
D03*
X168900Y159262D02*
D03*
X198800Y268700D02*
D03*
X215200Y161600D02*
D03*
X175200Y266500D02*
D03*
X246300Y105811D02*
D03*
X231787Y95205D02*
D03*
X309787Y116669D02*
D03*
X155000Y118536D02*
D03*
X291787Y91614D02*
D03*
X108815Y32900D02*
D03*
X221787Y182669D02*
D03*
X242387Y169369D02*
D03*
X220311Y175669D02*
D03*
X218300Y172500D02*
D03*
X231000Y141782D02*
D03*
X227000Y138000D02*
D03*
X218500Y131700D02*
D03*
X232787Y121669D02*
D03*
X230529Y123800D02*
D03*
X238976Y122869D02*
D03*
X214100Y117500D02*
D03*
X211100Y120700D02*
D03*
X185300Y178600D02*
D03*
X216150Y18669D02*
D03*
X218413Y128004D02*
D03*
X214000Y127600D02*
D03*
X225600Y150769D02*
D03*
X193900Y185400D02*
D03*
X237300Y179200D02*
D03*
X265500Y144400D02*
D03*
X189400Y147700D02*
D03*
X182200Y173500D02*
D03*
X183200Y169600D02*
D03*
X174300Y159262D02*
D03*
X198900Y151500D02*
D03*
X198400Y155300D02*
D03*
X202900Y256600D02*
D03*
X195000Y246400D02*
D03*
X195100Y238600D02*
D03*
X173029Y242200D02*
D03*
X199673Y160400D02*
D03*
X185000Y252400D02*
D03*
X206100Y174500D02*
D03*
X203300Y175200D02*
D03*
X201100Y172500D02*
D03*
X214000Y142569D02*
D03*
X210000Y143416D02*
D03*
X214600Y164400D02*
D03*
X181283Y134603D02*
D03*
X205610Y141000D02*
D03*
X200000Y130000D02*
D03*
X201000Y138000D02*
D03*
X195000Y150000D02*
D03*
X210000Y140000D02*
D03*
X221000Y135000D02*
D03*
X186000Y166172D02*
D03*
X188000Y162303D02*
D03*
X238046Y173728D02*
D03*
X294787Y120669D02*
D03*
X63787Y55669D02*
D03*
X267787Y101669D02*
D03*
X270787Y77669D02*
D03*
X270843Y68669D02*
D03*
X214637Y186314D02*
D03*
X78787Y33354D02*
D03*
X301500Y292027D02*
D03*
X312787Y20669D02*
D03*
Y23669D02*
D03*
Y26669D02*
D03*
Y29651D02*
D03*
X341287Y41791D02*
D03*
X334287D02*
D03*
X327287D02*
D03*
X248787Y35669D02*
D03*
Y44669D02*
D03*
Y30669D02*
D03*
X244667D02*
D03*
X248787Y40669D02*
D03*
Y48669D02*
D03*
X245287D02*
D03*
X198787Y71669D02*
D03*
X318787Y54669D02*
D03*
X315787D02*
D03*
X312787D02*
D03*
X308787D02*
D03*
X305787D02*
D03*
X240472Y18669D02*
D03*
X243787D02*
D03*
X246787D02*
D03*
X249787D02*
D03*
Y21669D02*
D03*
X246787D02*
D03*
X243787Y21874D02*
D03*
M02*
