G04*
G04 #@! TF.GenerationSoftware,Altium Limited,Altium Designer,19.0.15 (446)*
G04*
G04 Layer_Physical_Order=4*
G04 Layer_Color=16711680*
%FSLAX25Y25*%
%MOIN*%
G70*
G01*
G75*
%ADD10C,0.00787*%
%ADD13C,0.02362*%
%ADD17C,0.01000*%
%ADD80O,0.07874X0.15748*%
%ADD81O,0.17323X0.08661*%
%ADD82O,0.15748X0.07874*%
%ADD83O,0.05906X0.06693*%
%ADD84C,0.04724*%
%ADD85O,0.06299X0.09843*%
%ADD86R,0.06299X0.09843*%
%ADD87C,0.13780*%
%ADD88C,0.04201*%
%ADD89C,0.09650*%
%ADD90O,0.05906X0.07874*%
%ADD91R,0.05906X0.07874*%
%ADD92O,0.07874X0.05906*%
%ADD93R,0.07874X0.05906*%
%ADD94C,0.01968*%
%ADD102C,0.03150*%
D10*
X210734Y123722D02*
X226722D01*
X209956Y124500D02*
X210734Y123722D01*
X208900Y124500D02*
X209956D01*
X226722Y123722D02*
X255800Y152800D01*
X32000Y220800D02*
X91000D01*
X31200D02*
X32000D01*
X31200Y220000D02*
X32000Y220800D01*
X91000D02*
X161600Y150200D01*
X190300D02*
X192400Y148100D01*
X161600Y150200D02*
X190300D01*
X125265Y145535D02*
X207656D01*
X209774Y143416D01*
X210000D01*
X94787Y176013D02*
X125265Y145535D01*
X168567Y156533D02*
X197167D01*
X74300Y250800D02*
X168567Y156533D01*
X31200Y250800D02*
X74300D01*
X169700Y169600D02*
X183200D01*
X58500Y280800D02*
X169700Y169600D01*
X31200Y280800D02*
X58500D01*
X52900Y290800D02*
X170200Y173500D01*
X31200Y290800D02*
X52900D01*
X170200Y173500D02*
X182200D01*
X171100Y177500D02*
X182573D01*
X47800Y300800D02*
X171100Y177500D01*
X31200Y300800D02*
X47800D01*
X172735Y180765D02*
X186635D01*
X86100Y267400D02*
X172735Y180765D01*
X86100Y267400D02*
Y290000D01*
X164300Y152300D02*
X192700D01*
X85800Y230800D02*
X164300Y152300D01*
X32000Y230800D02*
X85800D01*
X166400Y154200D02*
X196200D01*
X79800Y240800D02*
X166400Y154200D01*
X31200Y240800D02*
X79800D01*
X96516Y210800D02*
X159616Y147700D01*
X31200Y210800D02*
X96516D01*
X159616Y147700D02*
X189400D01*
X167045Y162454D02*
X187848D01*
X68700Y260800D02*
X167045Y162454D01*
X31200Y260800D02*
X68700D01*
X168204Y166172D02*
X186000D01*
X63776Y270600D02*
X168204Y166172D01*
X32100Y270600D02*
X63776D01*
X174900Y183800D02*
X186600D01*
X96600Y262100D02*
X174900Y183800D01*
X96600Y262100D02*
Y289500D01*
X177700Y186500D02*
X187100D01*
X106100Y258100D02*
X177700Y186500D01*
X106100Y258100D02*
Y290000D01*
X210700Y278400D02*
X253200Y235900D01*
X140500Y278400D02*
X210700D01*
X136100Y282800D02*
X140500Y278400D01*
X212100Y281300D02*
X255800Y237600D01*
X148600Y281300D02*
X212100D01*
X146100Y283800D02*
X148600Y281300D01*
X209800Y275300D02*
X250400Y234700D01*
X132000Y275300D02*
X209800D01*
X126100Y281200D02*
X132000Y275300D01*
X208200Y272300D02*
X247800Y232700D01*
X125200Y272300D02*
X208200D01*
X116100Y281400D02*
X125200Y272300D01*
X215200Y161600D02*
X219700D01*
X237300Y179200D01*
X231787Y95205D02*
Y96187D01*
X265500Y129900D01*
X211100Y120600D02*
X231718D01*
X146100Y283800D02*
Y290000D01*
X96100D02*
X96600Y289500D01*
X116100Y281400D02*
Y290000D01*
X265500Y129900D02*
Y144400D01*
X289231Y120669D02*
X294787D01*
X265500Y144400D02*
X289231Y120669D01*
X126100Y281200D02*
Y290000D01*
X154700Y118536D02*
X158867D01*
X172769Y132438D01*
X227000Y138000D02*
X230782Y141782D01*
X111300Y140900D02*
X198100D01*
X74787Y177413D02*
X111300Y140900D01*
X74787Y177413D02*
Y186669D01*
X105700Y138700D02*
X176750D01*
X64787Y179613D02*
X105700Y138700D01*
X64787Y179613D02*
Y186669D01*
X119400Y143100D02*
X203510D01*
X84787Y177713D02*
X119400Y143100D01*
X84787Y177713D02*
Y186669D01*
X94787Y176013D02*
Y186669D01*
X203510Y143100D02*
X205610Y141000D01*
X198100Y140900D02*
X201000Y138000D01*
X176750Y138700D02*
X180847Y134603D01*
X247800Y168400D02*
Y232700D01*
X230169Y150769D02*
X247800Y168400D01*
X136100Y282800D02*
Y290000D01*
X250400Y153400D02*
Y234700D01*
X253200Y153200D02*
Y235900D01*
X231718Y120600D02*
X232787Y121669D01*
X225004Y128004D02*
X250400Y153400D01*
X225100Y125100D02*
X253200Y153200D01*
X255800Y152800D02*
Y237600D01*
X218413Y128004D02*
X225004D01*
X216500Y125100D02*
X225100D01*
X214000Y127600D02*
X216500Y125100D01*
X225600Y150769D02*
X230169D01*
X206100Y174500D02*
Y175462D01*
X204197Y177365D02*
X206100Y175462D01*
X196235Y177365D02*
X204197D01*
X194900Y172500D02*
X201100D01*
X186635Y180765D02*
X194900Y172500D01*
X195200Y175200D02*
X203300D01*
X186600Y183800D02*
X195200Y175200D01*
X187100Y186500D02*
X196235Y177365D01*
X182573Y177500D02*
X199673Y160400D01*
X209400Y160600D02*
X221000Y149000D01*
X209400Y160600D02*
Y199900D01*
X221000Y135000D02*
Y149000D01*
X185000Y224300D02*
X209400Y199900D01*
X185000Y224300D02*
Y252400D01*
X197167Y156533D02*
X198400Y155300D01*
X196200Y154200D02*
X198900Y151500D01*
X192700Y152300D02*
X195000Y150000D01*
Y238700D02*
Y246400D01*
Y238700D02*
X195100Y238600D01*
X230782Y141782D02*
X231000D01*
X202881Y175619D02*
X203300Y175200D01*
X172769Y132438D02*
X202438D01*
X210000Y140000D01*
X180847Y134603D02*
X181283D01*
D13*
X144900Y113600D02*
X229707D01*
X144000Y114500D02*
X144900Y113600D01*
X229707D02*
X238976Y122869D01*
D17*
X63787Y55669D02*
X144000D01*
X71957Y33354D02*
X78787D01*
X63787Y25185D02*
X71957Y33354D01*
X63787Y22669D02*
Y25185D01*
X93787Y4000D02*
Y22669D01*
D80*
X204291Y41961D02*
D03*
D81*
X185787Y53772D02*
D03*
D82*
Y30150D02*
D03*
D83*
X121752Y9669D02*
D03*
X150295D02*
D03*
D84*
X145571Y20276D02*
D03*
X126476Y20274D02*
D03*
D85*
X54787Y186669D02*
D03*
X44787D02*
D03*
X64787D02*
D03*
X84787D02*
D03*
X74787D02*
D03*
X94787D02*
D03*
X63787Y22669D02*
D03*
X73787D02*
D03*
X93787D02*
D03*
X83787D02*
D03*
X53787D02*
D03*
D86*
X34787Y186669D02*
D03*
X103787Y22669D02*
D03*
D87*
X18787Y184669D02*
D03*
X110787D02*
D03*
Y79669D02*
D03*
X18787D02*
D03*
D88*
X225484Y89902D02*
D03*
X236798Y106872D02*
D03*
X242455Y101215D02*
D03*
D89*
X218413Y96973D02*
D03*
X232555Y82830D02*
D03*
X227252Y105811D02*
D03*
X241394Y91669D02*
D03*
D90*
X175900Y300200D02*
D03*
X165900D02*
D03*
X155900D02*
D03*
X145900D02*
D03*
X135900D02*
D03*
X125900D02*
D03*
X115900D02*
D03*
X105900D02*
D03*
X95900D02*
D03*
X85900D02*
D03*
X95900Y290200D02*
D03*
X105900D02*
D03*
X115900D02*
D03*
X125900D02*
D03*
X135900D02*
D03*
X145900D02*
D03*
X155900D02*
D03*
X165900D02*
D03*
X175900D02*
D03*
D91*
X85900D02*
D03*
D92*
X31200Y210800D02*
D03*
Y220800D02*
D03*
Y230800D02*
D03*
Y240800D02*
D03*
Y250800D02*
D03*
Y260800D02*
D03*
Y270800D02*
D03*
Y280800D02*
D03*
Y290800D02*
D03*
Y300800D02*
D03*
X21200Y290800D02*
D03*
Y280800D02*
D03*
Y270800D02*
D03*
Y260800D02*
D03*
Y250800D02*
D03*
Y240800D02*
D03*
Y230800D02*
D03*
Y220800D02*
D03*
Y210800D02*
D03*
X139087Y240569D02*
D03*
Y250569D02*
D03*
X149087Y260569D02*
D03*
Y250569D02*
D03*
Y240569D02*
D03*
X134000Y134500D02*
D03*
Y124500D02*
D03*
Y114500D02*
D03*
X144000Y124500D02*
D03*
Y134500D02*
D03*
D93*
X21200Y300800D02*
D03*
X139087Y260569D02*
D03*
X144000Y114500D02*
D03*
D94*
X55800Y202400D02*
D03*
X144000Y55669D02*
D03*
X134787Y35669D02*
D03*
X208900Y124500D02*
D03*
X130905Y15811D02*
D03*
X139787Y26169D02*
D03*
X192400Y148100D02*
D03*
X168900Y159262D02*
D03*
X198800Y268700D02*
D03*
X215200Y161600D02*
D03*
X175200Y266500D02*
D03*
X246300Y105811D02*
D03*
X231787Y95205D02*
D03*
X309787Y116669D02*
D03*
X155000Y118536D02*
D03*
X291787Y91614D02*
D03*
X108815Y32900D02*
D03*
X221787Y182669D02*
D03*
X242387Y169369D02*
D03*
X220311Y175669D02*
D03*
X218300Y172500D02*
D03*
X231000Y141782D02*
D03*
X227000Y138000D02*
D03*
X218500Y131700D02*
D03*
X232787Y121669D02*
D03*
X230529Y123800D02*
D03*
X238976Y122869D02*
D03*
X214100Y117500D02*
D03*
X211100Y120700D02*
D03*
X185300Y178600D02*
D03*
X216150Y18669D02*
D03*
X218413Y128004D02*
D03*
X214000Y127600D02*
D03*
X225600Y150769D02*
D03*
X193900Y185400D02*
D03*
X237300Y179200D02*
D03*
X265500Y144400D02*
D03*
X189400Y147700D02*
D03*
X182200Y173500D02*
D03*
X183200Y169600D02*
D03*
X174300Y159262D02*
D03*
X198900Y151500D02*
D03*
X198400Y155300D02*
D03*
X202900Y256600D02*
D03*
X195000Y246400D02*
D03*
X195100Y238600D02*
D03*
X173029Y242200D02*
D03*
X199673Y160400D02*
D03*
X185000Y252400D02*
D03*
X206100Y174500D02*
D03*
X203300Y175200D02*
D03*
X201100Y172500D02*
D03*
X214000Y142569D02*
D03*
X210000Y143416D02*
D03*
X214600Y164400D02*
D03*
X181283Y134603D02*
D03*
X205610Y141000D02*
D03*
X200000Y130000D02*
D03*
X201000Y138000D02*
D03*
X195000Y150000D02*
D03*
X210000Y140000D02*
D03*
X221000Y135000D02*
D03*
X186000Y166172D02*
D03*
X188000Y162303D02*
D03*
X238046Y173728D02*
D03*
X294787Y120669D02*
D03*
X63787Y55669D02*
D03*
X267787Y101669D02*
D03*
X270787Y77669D02*
D03*
X270843Y68669D02*
D03*
X214637Y186314D02*
D03*
X78787Y33354D02*
D03*
X301500Y292027D02*
D03*
X312787Y20669D02*
D03*
Y23669D02*
D03*
Y26669D02*
D03*
Y29651D02*
D03*
X341287Y41791D02*
D03*
X334287D02*
D03*
X327287D02*
D03*
X248787Y35669D02*
D03*
Y44669D02*
D03*
Y30669D02*
D03*
X244667D02*
D03*
X248787Y40669D02*
D03*
Y48669D02*
D03*
X245287D02*
D03*
X198787Y71669D02*
D03*
X318787Y54669D02*
D03*
X315787D02*
D03*
X312787D02*
D03*
X308787D02*
D03*
X305787D02*
D03*
X240472Y18669D02*
D03*
X243787D02*
D03*
X246787D02*
D03*
X249787D02*
D03*
Y21669D02*
D03*
X246787D02*
D03*
X243787Y21874D02*
D03*
D102*
X49827Y3961D02*
X93787D01*
X122989D01*
X130000Y4000D02*
X147090D01*
X130905Y4905D02*
Y15811D01*
X130000Y4000D02*
X130905Y4905D01*
X123028Y4000D02*
X130000D01*
X122989Y3961D02*
X123028Y4000D01*
X151572D02*
X302787D01*
X151532Y3961D02*
X151572Y4000D01*
X147129Y3961D02*
X151532D01*
X147090Y4000D02*
X147129Y3961D01*
X302787Y4000D02*
X312787Y14000D01*
X44787Y9000D02*
X49827Y3961D01*
X44787Y9000D02*
X44787Y186669D01*
X312787Y14000D02*
Y20669D01*
Y23669D01*
Y26669D01*
Y29651D01*
M02*
